#!OML:ASF F:\VICON\USERDATA\INSTALL\rory3\rory3.ASF
:FULLY-SPECIFIED
:DEGREES
58
root -0.4630330900666403 17.394588407636316 35.996164018772085 3.409187756310679 5.018552273372492 -2.439868027973623
lfemur 12.740696520654046 -4.905996923670157 -21.648328155664565
ltibia 66.9290617051461
lfoot 25.957020286574338 -18.324171294520518
ltoes -19.081742588646527
rfemur -40.89049502337109 1.0737170587234384 28.678596157840808
rtibia 55.18675420841402
rfoot 11.63506266655541 -2.3291890710920713
rtoes 13.677817813960166
lowerback 14.335326405307041 -1.4206840765263924 -0.3292543023341623
upperback -1.208036139873949 -1.832221670603286 3.5940711676465886
thorax -9.420716802814312 -0.7023181716014567 4.28072610979842
lowerneck -19.936136843659625 -1.5595143310521404 -2.6129156391163564
upperneck 13.727667972861884 -1.796352994683812 2.6085876613748504
head 7.567097231852945 -0.7325183893336153 0.9592874348544153
lclavicle -1.8826760597459568e-15 1.6720397425007704e-15
lhumerus -32.10634969024522 -18.429011486998178 98.51064855891696
lradius 119.75077802124241
lwrist 36.37006589635036
lhand -25.843809913210126 0.8329707070478303
lfingers 7.12502
lthumb 0.6966680658082541 30.797289131469068
rclavicle -1.8826760597459568e-15 1.6720397425007704e-15
rhumerus -69.66621004237821 -2.0221434128435494 -88.78465048400261
rradius 100.06634115430806
rwrist -5.0392917622023115
rhand -16.200112173141452 39.968670938687914
rfingers 7.12502
rthumb 10.006954013364702 10.224890286271481
59
root -0.5526976592297843 17.853007526709593 36.442443340285344 2.838735061113207 4.634518106735514 -3.518321641022254
lfemur 3.1381563813473843 -2.849194045902267 -18.873779485181167
ltibia 82.43852143259535
lfoot 33.75547028833089 -19.803347510371957
ltoes -10.8058817297331
rfemur -34.274253260613875 1.8896704884287454 30.69830087350947
rtibia 54.16195059697445
rfoot 8.623609406756096 -3.04556798505116
rtoes 18.08368541709654
lowerback 14.588550447258214 -1.1816057852088426 0.9714168324733393
upperback -1.1545484411881513 -1.3152253279559787 3.9080151932737146
thorax -9.544948257832019 -0.5017796301571379 3.511648129477643
lowerneck -19.348583073997894 -1.8785472956234948 -2.571176099201832
upperneck 13.95562919036306 -2.3310189698212573 2.8417360891303645
head 7.568123817273041 -0.9681523983114717 0.9942872329690378
lclavicle -1.796753326248855e-15 1.734345383708441e-15
lhumerus -35.97109250055193 -18.35807037035152 99.34282959247533
lradius 117.8891755298658
lwrist 35.275817283431856
lhand -25.009554961579678 1.295998237793147
lfingers 7.12502
lthumb 1.5023471040455876 31.26753407666546
rclavicle -1.796753326248855e-15 1.734345383708441e-15
rhumerus -67.97493860319429 -0.9421705372437668 -90.04352022515398
rradius 100.70116120724491
rwrist -5.85660354345922
rhand -15.68408819790419 40.27792164017877
rfingers 7.12502
rthumb 10.504986886014317 10.570623954056673
60
root -0.6141993911162182 18.229884423168233 37.28627730091404 2.4878343641692826 3.893015106092262 -4.198438231491058
lfemur -6.35690784561239 -0.04329940746343125 -16.992007918443623
ltibia 93.4644587422608
lfoot 30.229315668088425 -18.33471246201921
ltoes -7.902165058778841
rfemur -27.63498186761787 2.6883859529334115 32.27188571386972
rtibia 51.38388966657904
rfoot 4.97917795844787 -4.253174469302179
rtoes 18.141681108279478
lowerback 14.661852550614206 -0.7514741890108709 1.9138573145746656
upperback -0.9326228419465501 -0.59006187107655 3.8671937746017573
thorax -9.50698428629348 -0.2066060729461402 2.692341994683597
lowerneck -18.823631598657265 -2.2813128146971646 -2.5307036171431085
upperneck 14.1027916847619 -3.0235251107921184 3.1692477279549216
head 7.565701658974592 -1.2464376005344504 1.0425446542396806
lclavicle -1.564860582075911e-15 1.9025600982270894e-15
lhumerus -38.80254758010693 -18.17628517346946 99.82062663218464
lradius 115.85893147557529
lwrist 34.163829386423394
lhand -24.647850322470237 1.3750148581182162
lfingers 7.12502
lthumb 1.851655288902367 31.353380730484666
rclavicle -1.564860582075911e-15 1.9025600982270894e-15
rhumerus -64.56818661808656 1.0551412988261522 -92.1539245538021
rradius 102.05079368755781
rwrist -6.908177022405381
rhand -15.338241264862372 40.47136244523363
rfingers 7.12502
rthumb 10.838785751532285 10.80453068098402
61
root -0.6429332737053236 18.46626266382242 37.89936252046526 2.331711899934959 2.7308378257422703 -4.525819509735026
lfemur -14.658297852813396 2.8013398764153403 -15.99743925256501
ltibia 99.67692116498152
lfoot 20.31436400141697 -15.110925475172944
ltoes -9.196913663064475
rfemur -21.455940212512488 3.1987039649679256 33.59874584590403
rtibia 49.2154242647011
rfoot 1.4787674202077228 -4.772457351267624
rtoes 16.36595843270557
lowerback 14.709447930212857 -0.15438286723836148 2.7228024832128694
upperback -0.7048759479375537 0.3472347024341631 3.604686091760599
thorax -9.407826749567331 0.18036446107570792 1.8099869169671885
lowerneck -18.48895840528781 -2.575439837630544 -2.4620660070293807
upperneck 14.218628254456707 -3.5376853955586185 3.3851419580437057
head 7.5830506283102395 -1.4459965442124503 1.054626998301283
lclavicle -9.0823666165401e-16 2.378872763469745e-15
lhumerus -41.6235731864463 -17.529430254542543 100.05234007172446
lradius 114.11298934221013
lwrist 33.707869725780824
lhand -24.599686250760627 1.266393076148703
lfingers 7.12502
lthumb 1.8981546214579552 31.248183469095803
rclavicle -9.0823666165401e-16 2.378872763469745e-15
rhumerus -60.12025911131148 3.6733317708739808 -94.35700422878178
rradius 103.99464169896758
rwrist -7.920451065928603
rhand -15.250727278380367 40.20477260867778
rfingers 7.12502
rthumb 10.9232692102261 10.570531752228275
